<svg width="264" height="69" viewBox="0 0 264 69" fill="none" xmlns="http://www.w3.org/2000/svg">
<g filter="url(#filter0_d_71_459)">
<path d="M47.3573 10.6538L17.4715 13.2685C13.3451 13.6295 10.2927 17.2672 10.6537 21.3936L13.2683 51.2794C13.6294 55.4058 17.2671 58.4582 21.3935 58.0972L51.2793 55.4825C55.4057 55.1215 58.4581 51.4838 58.0971 47.3574L55.4824 17.4716C55.1214 13.3452 51.4837 10.2928 47.3573 10.6538Z" fill="white"/>
<path d="M43.9483 14.7164L21.534 16.6774C17.4076 17.0384 14.3552 20.6761 14.7162 24.8025L16.6772 47.2169C17.0382 51.3433 20.6759 54.3957 24.8023 54.0347L47.2167 52.0737C51.3431 51.7127 54.3955 48.0749 54.0345 43.9486L52.0735 21.5342C51.7125 17.4078 48.0747 14.3554 43.9483 14.7164Z" fill="url(#paint0_linear_71_459)"/>
<path d="M24.9679 34.4146L24.2189 25.8535L32.7799 25.1045L33.5289 33.6656L24.9679 34.4146ZM25.853 44.5322L25.104 35.9711L33.6651 35.2221L34.4141 43.7832L25.853 44.5322ZM35.0855 33.5294L34.3365 24.9683L42.8975 24.2193L43.6465 32.7804L35.0855 33.5294ZM35.9706 43.647L35.2216 35.0859L43.7827 34.3369L44.5317 42.898L35.9706 43.647Z" fill="white"/>
</g>
<g clip-path="url(#clip0_71_459)">
<path d="M73.8342 43.3755L69.5142 25.6155H73.6422L76.5942 38.0235L79.6902 25.6155H83.9622L87.0582 38.0235L90.0102 25.6155H94.1382L89.8182 43.3755H84.4182L81.8262 32.8395L79.2342 43.3755H73.8342ZM104.211 43.6155C102.691 43.6155 101.363 43.3595 100.227 42.8475C99.0907 42.3195 98.1387 41.6235 97.3707 40.7595C96.6187 39.8795 96.0507 38.8955 95.6667 37.8075C95.2827 36.7195 95.0907 35.6075 95.0907 34.4715C95.0907 33.3355 95.2827 32.2315 95.6667 31.1595C96.0507 30.0715 96.6187 29.0955 97.3707 28.2315C98.1387 27.3675 99.0907 26.6795 100.227 26.1675C101.363 25.6395 102.691 25.3755 104.211 25.3755C105.715 25.3755 107.035 25.6395 108.171 26.1675C109.307 26.6795 110.251 27.3675 111.003 28.2315C111.771 29.0955 112.347 30.0715 112.731 31.1595C113.115 32.2315 113.307 33.3355 113.307 34.4715C113.307 35.6075 113.115 36.7195 112.731 37.8075C112.347 38.8955 111.771 39.8795 111.003 40.7595C110.251 41.6235 109.307 42.3195 108.171 42.8475C107.035 43.3595 105.715 43.6155 104.211 43.6155ZM104.211 39.8955C105.251 39.8955 106.123 39.6315 106.827 39.1035C107.547 38.5755 108.083 37.9035 108.435 37.0875C108.803 36.2555 108.987 35.3835 108.987 34.4715C108.987 33.5755 108.803 32.7195 108.435 31.9035C108.083 31.0715 107.547 30.3915 106.827 29.8635C106.123 29.3355 105.251 29.0715 104.211 29.0715C103.155 29.0715 102.267 29.3355 101.547 29.8635C100.843 30.3915 100.315 31.0715 99.9627 31.9035C99.6107 32.7195 99.4347 33.5755 99.4347 34.4715C99.4347 35.3835 99.6107 36.2555 99.9627 37.0875C100.315 37.9035 100.843 38.5755 101.547 39.1035C102.267 39.6315 103.155 39.8955 104.211 39.8955ZM115.685 43.3755V25.6155H123.197C124.509 25.6155 125.653 25.8395 126.629 26.2875C127.605 26.7355 128.357 27.3755 128.885 28.2075C129.413 29.0395 129.677 30.0315 129.677 31.1835C129.677 32.3675 129.389 33.3835 128.813 34.2315C128.253 35.0795 127.461 35.7195 126.437 36.1515L130.109 43.3755H125.525L122.237 36.7275H119.837V43.3755H115.685ZM123.149 29.1915H119.837V33.3915H123.149C123.869 33.3915 124.445 33.1995 124.877 32.8155C125.309 32.4315 125.525 31.9275 125.525 31.3035C125.525 30.6635 125.309 30.1515 124.877 29.7675C124.445 29.3835 123.869 29.1915 123.149 29.1915ZM133.099 43.3755V25.6155H140.131C141.587 25.6155 142.867 25.8715 143.971 26.3835C145.075 26.8795 145.987 27.5515 146.707 28.3995C147.443 29.2475 147.995 30.1995 148.363 31.2555C148.731 32.3115 148.915 33.3915 148.915 34.4955C148.915 35.5995 148.731 36.6795 148.363 37.7355C147.995 38.7915 147.443 39.7435 146.707 40.5915C145.987 41.4395 145.075 42.1195 143.971 42.6315C142.867 43.1275 141.587 43.3755 140.131 43.3755H133.099ZM139.939 29.2635H137.251V39.6795H139.939C141.043 39.6795 141.947 39.4235 142.651 38.9115C143.371 38.3995 143.899 37.7515 144.235 36.9675C144.571 36.1675 144.739 35.3275 144.739 34.4475C144.739 33.5995 144.571 32.7755 144.235 31.9755C143.899 31.1755 143.371 30.5275 142.651 30.0315C141.947 29.5195 141.043 29.2635 139.939 29.2635Z" fill="black"/>
<path d="M158.151 43.6155C156.951 43.6155 155.927 43.4795 155.079 43.2075C154.247 42.9195 153.551 42.5515 152.991 42.1035C152.447 41.6555 152.007 41.1835 151.671 40.6875C151.351 40.1915 151.111 39.7195 150.951 39.2715C150.807 38.8235 150.711 38.4635 150.663 38.1915C150.615 37.9035 150.591 37.7595 150.591 37.7595H154.791C154.791 37.7595 154.823 37.8875 154.887 38.1435C154.951 38.3835 155.095 38.6635 155.319 38.9835C155.559 39.3035 155.911 39.5915 156.375 39.8475C156.855 40.0875 157.495 40.2075 158.295 40.2075C159.287 40.2075 159.999 40.0075 160.431 39.6075C160.879 39.2075 161.103 38.7515 161.103 38.2395C161.103 37.7755 160.935 37.4075 160.599 37.1355C160.279 36.8635 159.751 36.6555 159.015 36.5115L156.639 36.1035C155.647 35.9275 154.711 35.6475 153.831 35.2635C152.967 34.8795 152.263 34.3355 151.719 33.6315C151.191 32.9275 150.927 32.0155 150.927 30.8955C150.927 29.7915 151.199 28.8315 151.743 28.0155C152.303 27.1835 153.095 26.5355 154.119 26.0715C155.143 25.6075 156.351 25.3755 157.743 25.3755C158.831 25.3755 159.759 25.5115 160.527 25.7835C161.295 26.0395 161.935 26.3755 162.447 26.7915C162.959 27.1915 163.367 27.6235 163.671 28.0875C163.991 28.5355 164.223 28.9675 164.367 29.3835C164.527 29.7995 164.631 30.1355 164.679 30.3915C164.727 30.6475 164.751 30.7755 164.751 30.7755H160.647C160.647 30.7755 160.615 30.6795 160.551 30.4875C160.503 30.2795 160.375 30.0475 160.167 29.7915C159.975 29.5195 159.679 29.2795 159.279 29.0715C158.879 28.8635 158.335 28.7595 157.647 28.7595C156.687 28.7595 156.007 28.9675 155.607 29.3835C155.207 29.7835 155.007 30.2075 155.007 30.6555C155.007 31.1515 155.223 31.5275 155.655 31.7835C156.103 32.0395 156.663 32.2315 157.335 32.3595L159.855 32.7915C160.831 32.9675 161.727 33.2635 162.543 33.6795C163.359 34.0955 164.015 34.6555 164.511 35.3595C165.007 36.0635 165.255 36.9355 165.255 37.9755C165.255 39.0475 164.975 40.0155 164.415 40.8795C163.871 41.7275 163.071 42.3995 162.015 42.8955C160.959 43.3755 159.671 43.6155 158.151 43.6155ZM167.529 43.3755V25.6155H180.081V29.2155H171.681V32.6475H179.001V36.0795H171.681V39.7755H180.201V43.3755H167.529ZM182.179 43.3755L188.155 25.6155H193.723L199.699 43.3755H195.355L194.323 40.1355H187.555L186.523 43.3755H182.179ZM188.707 36.5835H193.195L190.939 29.5995L188.707 36.5835ZM201.841 43.3755V25.6155H209.353C210.665 25.6155 211.809 25.8395 212.785 26.2875C213.761 26.7355 214.513 27.3755 215.041 28.2075C215.569 29.0395 215.833 30.0315 215.833 31.1835C215.833 32.3675 215.545 33.3835 214.969 34.2315C214.409 35.0795 213.617 35.7195 212.593 36.1515L216.265 43.3755H211.681L208.393 36.7275H205.993V43.3755H201.841ZM209.305 29.1915H205.993V33.3915H209.305C210.025 33.3915 210.601 33.1995 211.033 32.8155C211.465 32.4315 211.681 31.9275 211.681 31.3035C211.681 30.6635 211.465 30.1515 211.033 29.7675C210.601 29.3835 210.025 29.1915 209.305 29.1915ZM226.62 43.6155C225.148 43.6155 223.852 43.3595 222.732 42.8475C221.612 42.3195 220.676 41.6235 219.924 40.7595C219.188 39.8795 218.628 38.8955 218.244 37.8075C217.876 36.7195 217.692 35.6075 217.692 34.4715C217.692 33.3515 217.876 32.2475 218.244 31.1595C218.628 30.0715 219.188 29.0955 219.924 28.2315C220.676 27.3675 221.612 26.6795 222.732 26.1675C223.852 25.6395 225.148 25.3755 226.62 25.3755C227.884 25.3755 228.956 25.5355 229.836 25.8555C230.732 26.1595 231.476 26.5675 232.068 27.0795C232.676 27.5755 233.156 28.1035 233.508 28.6635C233.876 29.2075 234.148 29.7275 234.324 30.2235C234.5 30.7195 234.612 31.1275 234.66 31.4475C234.724 31.7675 234.756 31.9275 234.756 31.9275H230.652C230.652 31.9275 230.604 31.7835 230.508 31.4955C230.428 31.2075 230.252 30.8795 229.98 30.5115C229.724 30.1275 229.332 29.7915 228.804 29.5035C228.276 29.2155 227.564 29.0715 226.668 29.0715C225.628 29.0715 224.756 29.3355 224.052 29.8635C223.364 30.3915 222.844 31.0715 222.492 31.9035C222.156 32.7195 221.988 33.5755 221.988 34.4715C221.988 35.3675 222.156 36.2315 222.492 37.0635C222.844 37.8955 223.364 38.5755 224.052 39.1035C224.756 39.6315 225.628 39.8955 226.668 39.8955C227.564 39.8955 228.276 39.7515 228.804 39.4635C229.332 39.1755 229.724 38.8475 229.98 38.4795C230.252 38.1115 230.428 37.7835 230.508 37.4955C230.604 37.2075 230.652 37.0635 230.652 37.0635H234.756C234.756 37.0635 234.724 37.2235 234.66 37.5435C234.612 37.8475 234.5 38.2555 234.324 38.7675C234.148 39.2635 233.876 39.7915 233.508 40.3515C233.156 40.8955 232.676 41.4235 232.068 41.9355C231.476 42.4315 230.732 42.8395 229.836 43.1595C228.956 43.4635 227.884 43.6155 226.62 43.6155ZM237.138 43.3755V25.6155H241.29V32.5035H247.674V25.6155H251.826V43.3755H247.674V36.0555H241.29V43.3755H237.138Z" fill="url(#paint1_linear_71_459)"/>
</g>
<defs>
<filter id="filter0_d_71_459" x="1.62463" y="10.6248" width="56.5015" height="55.5015" filterUnits="userSpaceOnUse" color-interpolation-filters="sRGB">
<feFlood flood-opacity="0" result="BackgroundImageFix"/>
<feColorMatrix in="SourceAlpha" type="matrix" values="0 0 0 0 0 0 0 0 0 0 0 0 0 0 0 0 0 0 127 0" result="hardAlpha"/>
<feOffset dx="-5" dy="4"/>
<feGaussianBlur stdDeviation="2"/>
<feComposite in2="hardAlpha" operator="out"/>
<feColorMatrix type="matrix" values="0 0 0 0 0 0 0 0 0 0 0 0 0 0 0 0 0 0 0.25 0"/>
<feBlend mode="normal" in2="BackgroundImageFix" result="effect1_dropShadow_71_459"/>
<feBlend mode="normal" in="SourceGraphic" in2="effect1_dropShadow_71_459" result="shape"/>
</filter>
<linearGradient id="paint0_linear_71_459" x1="32.7411" y1="15.6969" x2="36.0095" y2="53.0542" gradientUnits="userSpaceOnUse">
<stop stop-color="#FF7373"/>
<stop offset="0.5" stop-color="#FF8F73"/>
<stop offset="1" stop-color="#FFAB73"/>
</linearGradient>
<linearGradient id="paint1_linear_71_459" x1="201.945" y1="19.3755" x2="201.945" y2="49.3755" gradientUnits="userSpaceOnUse">
<stop stop-color="#FF7373"/>
<stop offset="0.5" stop-color="#FF8C6E"/>
<stop offset="1" stop-color="#FFA468"/>
</linearGradient>
<clipPath id="clip0_71_459">
<rect width="185" height="30" fill="white" transform="translate(68.7507 19.3755)"/>
</clipPath>
</defs>
</svg>
